# xmcd
#
# Track frame offsets: 
#        182
#        16982
#        31305
#        50527
#        62882
#        79765
#        97470
#        113487
#        126352
#        139130
#        151487
#        165930
#
# Disc length: 2573 seconds
#
# Revision: 1
# Processed by: cddbd v1.5PL3 Copyright (c) Steve Scherf et al.
# Submitted via: ExactAudioCopy v0.95a3
#
DISCID=9d0a0b0c
DTITLE=Shane McAnally - Shane McAnally
DYEAR=2000
DGENRE=Country
TTITLE0=Run Away
TTITLE1=Say Anything
TTITLE2=Are Your Eyes Still Blue
TTITLE3=The Definition Of Love
TTITLE4=It Comes And Goes
TTITLE5=I Remember You
TTITLE6=Little Imperfections
TTITLE7=You Ain't Seen Nothin' Yet
TTITLE8=Wait 'Til I Get My Hands On You
TTITLE9=I Could Have Told You That
TTITLE10=Just One Touch
TTITLE11=If It's Over
EXTD=
EXTT0=
EXTT1=
EXTT2=
EXTT3=
EXTT4=
EXTT5=
EXTT6=
EXTT7=
EXTT8=
EXTT9=
EXTT10=
EXTT11=
PLAYORDER=
